# xmcd
#
# Track frame offsets: 
#        150
#        16602
#        36815
#        53159
#        65568
#        78881
#        94716
#        111766
#        131532
#        146942
#        162656
#
# Disc length: 2468 seconds
#
# Revision: 0
# Processed by: cddbd v1.5.2PL0 Copyright (c) Steve Scherf et al.
# Submitted via: ExactAudioCopy v0.99pb5
#
DISCID=8f09a20b
DTITLE=Christian Kane - The House Rules
DYEAR=2010
DGENRE=Country
TTITLE0=The House Rules
TTITLE1=Something's Gotta Give
TTITLE2=Thinking of You
TTITLE3=Whiskey In Mind
TTITLE4=Let's Take A Drive
TTITLE5=Callin' All Country Women
TTITLE6=American Made
TTITLE7=Let Me Go
TTITLE8=Seven Days
TTITLE9=Making Circles
TTITLE10=Fast Car
EXTD=
EXTT0=
EXTT1=
EXTT2=
EXTT3=
EXTT4=
EXTT5=
EXTT6=
EXTT7=
EXTT8=
EXTT9=
EXTT10=
PLAYORDER=
